<svg xmlns="http://www.w3.org/2000/svg" xmlns:xlink="http://www.w3.org/1999/xlink" version="1.1" x="0px" y="0px" viewBox="0 0 300 375" style="enable-background:new 0 0 300 300;" xml:space="preserve"><path d="M271.8,127c0.2-53.9-54-97.8-121.2-98.1S28.7,72.1,28.5,126c-0.2,53.9,54,97.8,121.2,98.1c0.8,0,1.5,0,2.3,0  l67.7,47.3l-4-62.6C249.2,191.6,271.6,161.4,271.8,127z M188.9,156c3.1,3.1,3.1,8.2,0,11.3c-1.6,1.6-3.6,2.3-5.7,2.3  s-4.1-0.8-5.7-2.3L150,139.8l-27.5,27.5c-1.6,1.6-3.6,2.3-5.7,2.3s-4.1-0.8-5.7-2.3c-3.1-3.1-3.1-8.2,0-11.3l27.5-27.5L111.1,101  c-3.1-3.1-3.1-8.2,0-11.3c3.1-3.1,8.2-3.1,11.3,0l27.5,27.5l27.5-27.5c3.1-3.1,8.2-3.1,11.3,0c3.1,3.1,3.1,8.2,0,11.3l-27.5,27.5  L188.9,156z"/><text x="0" y="315" fill="#000000" font-size="5px" font-weight="bold" font-family="'Helvetica Neue', Helvetica, Arial-Unicode, Arial, Sans-serif">Created by Angelo Troiano</text><text x="0" y="320" fill="#000000" font-size="5px" font-weight="bold" font-family="'Helvetica Neue', Helvetica, Arial-Unicode, Arial, Sans-serif">from the Noun Project</text></svg>